<mxfile host="app.diagrams.net" modified="2021-06-01T09:41:44.798Z" agent="5.0 (Windows NT 10.0; Win64; x64) AppleWebKit/537.36 (KHTML, like Gecko) Chrome/91.0.4472.77 Safari/537.36" etag="uWrJv1bcKq3ApAai3Pew" version="14.7.3" type="github">
  <diagram id="C5RBs43oDa-KdzZeNtuy" name="Page-1">
    <mxGraphModel dx="1182" dy="765" grid="1" gridSize="10" guides="1" tooltips="1" connect="1" arrows="1" fold="1" page="1" pageScale="1" pageWidth="827" pageHeight="1169" math="0" shadow="0">
      <root>
        <mxCell id="WIyWlLk6GJQsqaUBKTNV-0" />
        <mxCell id="WIyWlLk6GJQsqaUBKTNV-1" parent="WIyWlLk6GJQsqaUBKTNV-0" />
        <mxCell id="ji1JhoX9aw4-4HObb1kB-11" value="" style="rounded=0;whiteSpace=wrap;html=1;sketch=0;dashed=1;" vertex="1" parent="WIyWlLk6GJQsqaUBKTNV-1">
          <mxGeometry x="60" y="470" width="370" height="220" as="geometry" />
        </mxCell>
        <mxCell id="ji1JhoX9aw4-4HObb1kB-2" style="edgeStyle=orthogonalEdgeStyle;rounded=0;orthogonalLoop=1;jettySize=auto;html=1;entryX=0.5;entryY=0;entryDx=0;entryDy=0;" edge="1" parent="WIyWlLk6GJQsqaUBKTNV-1" source="ji1JhoX9aw4-4HObb1kB-0" target="ji1JhoX9aw4-4HObb1kB-1">
          <mxGeometry relative="1" as="geometry" />
        </mxCell>
        <mxCell id="ji1JhoX9aw4-4HObb1kB-0" value="&lt;pre style=&quot;color: rgb(255 , 255 , 255) ; font-family: &amp;#34;dejavu sans mono&amp;#34; , monospace ; font-size: 12.8pt&quot;&gt;&lt;pre style=&quot;color: rgb(38 , 38 , 38) ; font-family: &amp;#34;dejavu sans mono&amp;#34; , monospace ; font-size: 12.8pt&quot;&gt;&lt;span style=&quot;color: #000000&quot;&gt;加载Service的时候解析配置创建连接&lt;/span&gt;&lt;/pre&gt;&lt;/pre&gt;" style="rounded=0;whiteSpace=wrap;html=1;labelBackgroundColor=none;" vertex="1" parent="WIyWlLk6GJQsqaUBKTNV-1">
          <mxGeometry x="85" y="120" width="310" height="60" as="geometry" />
        </mxCell>
        <mxCell id="ji1JhoX9aw4-4HObb1kB-4" style="edgeStyle=orthogonalEdgeStyle;rounded=0;orthogonalLoop=1;jettySize=auto;html=1;entryX=0.5;entryY=0;entryDx=0;entryDy=0;" edge="1" parent="WIyWlLk6GJQsqaUBKTNV-1" source="ji1JhoX9aw4-4HObb1kB-1" target="ji1JhoX9aw4-4HObb1kB-3">
          <mxGeometry relative="1" as="geometry" />
        </mxCell>
        <mxCell id="ji1JhoX9aw4-4HObb1kB-1" value="&lt;pre style=&quot;background-color: #f2f3f7 ; color: #262626 ; font-family: &amp;#34;dejavu sans mono&amp;#34; , monospace ; font-size: 12.8pt&quot;&gt;Service#&lt;span style=&quot;color: #000000&quot;&gt;execute&lt;/span&gt;&lt;/pre&gt;" style="rounded=0;whiteSpace=wrap;html=1;" vertex="1" parent="WIyWlLk6GJQsqaUBKTNV-1">
          <mxGeometry x="160" y="230" width="160" height="60" as="geometry" />
        </mxCell>
        <mxCell id="ji1JhoX9aw4-4HObb1kB-6" style="edgeStyle=orthogonalEdgeStyle;curved=0;rounded=1;sketch=0;orthogonalLoop=1;jettySize=auto;html=1;entryX=0.5;entryY=0;entryDx=0;entryDy=0;" edge="1" parent="WIyWlLk6GJQsqaUBKTNV-1" source="ji1JhoX9aw4-4HObb1kB-3" target="ji1JhoX9aw4-4HObb1kB-5">
          <mxGeometry relative="1" as="geometry" />
        </mxCell>
        <mxCell id="ji1JhoX9aw4-4HObb1kB-3" value="&lt;pre style=&quot;color: rgb(38 , 38 , 38) ; font-family: &amp;#34;dejavu sans mono&amp;#34; , monospace ; font-size: 12.8pt&quot;&gt;&lt;span style=&quot;background-color: rgb(255 , 255 , 255)&quot;&gt;&lt;span style=&quot;color: rgb(0 , 0 , 0)&quot;&gt;Loader&lt;/span&gt;.getLoadBalance()&lt;/span&gt;&lt;/pre&gt;" style="rounded=0;whiteSpace=wrap;html=1;" vertex="1" parent="WIyWlLk6GJQsqaUBKTNV-1">
          <mxGeometry x="120" y="350" width="240" height="60" as="geometry" />
        </mxCell>
        <mxCell id="ji1JhoX9aw4-4HObb1kB-8" style="edgeStyle=orthogonalEdgeStyle;curved=0;rounded=1;sketch=0;orthogonalLoop=1;jettySize=auto;html=1;entryX=0.5;entryY=0;entryDx=0;entryDy=0;" edge="1" parent="WIyWlLk6GJQsqaUBKTNV-1" source="ji1JhoX9aw4-4HObb1kB-5" target="ji1JhoX9aw4-4HObb1kB-7">
          <mxGeometry relative="1" as="geometry" />
        </mxCell>
        <mxCell id="ji1JhoX9aw4-4HObb1kB-5" value="&lt;font style=&quot;font-size: 17px&quot;&gt;LoadBalance#communicate&lt;/font&gt;" style="rounded=0;whiteSpace=wrap;html=1;sketch=0;" vertex="1" parent="WIyWlLk6GJQsqaUBKTNV-1">
          <mxGeometry x="127.5" y="480" width="225" height="60" as="geometry" />
        </mxCell>
        <mxCell id="ji1JhoX9aw4-4HObb1kB-10" style="edgeStyle=orthogonalEdgeStyle;curved=0;rounded=1;sketch=0;orthogonalLoop=1;jettySize=auto;html=1;" edge="1" parent="WIyWlLk6GJQsqaUBKTNV-1" source="ji1JhoX9aw4-4HObb1kB-7" target="ji1JhoX9aw4-4HObb1kB-9">
          <mxGeometry relative="1" as="geometry" />
        </mxCell>
        <mxCell id="ji1JhoX9aw4-4HObb1kB-7" value="&lt;pre style=&quot;background-color: #f2f3f7 ; color: #262626 ; font-family: &amp;#34;dejavu sans mono&amp;#34; , monospace ; font-size: 12.8pt&quot;&gt;&lt;span style=&quot;color: #660e7a&quot;&gt;picker&lt;/span&gt;.&lt;span style=&quot;color: #000000&quot;&gt;communicate&lt;/span&gt;&lt;/pre&gt;" style="rounded=0;whiteSpace=wrap;html=1;sketch=0;" vertex="1" parent="WIyWlLk6GJQsqaUBKTNV-1">
          <mxGeometry x="125" y="605" width="230" height="60" as="geometry" />
        </mxCell>
        <mxCell id="ji1JhoX9aw4-4HObb1kB-12" value="负载均衡和重试策略" style="text;html=1;strokeColor=none;fillColor=none;align=center;verticalAlign=middle;whiteSpace=wrap;rounded=0;dashed=1;sketch=0;" vertex="1" parent="WIyWlLk6GJQsqaUBKTNV-1">
          <mxGeometry x="250" y="450" width="120" height="20" as="geometry" />
        </mxCell>
        <mxCell id="ji1JhoX9aw4-4HObb1kB-26" style="edgeStyle=orthogonalEdgeStyle;curved=0;rounded=1;sketch=0;orthogonalLoop=1;jettySize=auto;html=1;fontSize=17;entryX=1;entryY=0.25;entryDx=0;entryDy=0;" edge="1" parent="WIyWlLk6GJQsqaUBKTNV-1" source="ji1JhoX9aw4-4HObb1kB-13" target="ji1JhoX9aw4-4HObb1kB-9">
          <mxGeometry relative="1" as="geometry">
            <mxPoint x="340" y="782" as="targetPoint" />
          </mxGeometry>
        </mxCell>
        <mxCell id="ji1JhoX9aw4-4HObb1kB-13" value="" style="verticalLabelPosition=bottom;html=1;verticalAlign=top;align=center;strokeColor=none;fillColor=#00BEF2;shape=mxgraph.azure.server;rounded=0;dashed=1;sketch=0;" vertex="1" parent="WIyWlLk6GJQsqaUBKTNV-1">
          <mxGeometry x="550" y="780" width="100" height="45" as="geometry" />
        </mxCell>
        <mxCell id="ji1JhoX9aw4-4HObb1kB-21" value="" style="group" vertex="1" connectable="0" parent="WIyWlLk6GJQsqaUBKTNV-1">
          <mxGeometry x="130" y="760" width="220" height="100" as="geometry" />
        </mxCell>
        <mxCell id="ji1JhoX9aw4-4HObb1kB-9" value="&lt;pre style=&quot;text-align: right ; background-color: rgb(242 , 243 , 247)&quot;&gt;&lt;font color=&quot;#262626&quot; face=&quot;DejaVu Sans Mono, monospace&quot;&gt;&lt;span style=&quot;font-size: 12.8pt&quot;&gt;&lt;br&gt;&lt;/span&gt;&lt;/font&gt;&lt;/pre&gt;" style="rounded=0;whiteSpace=wrap;html=1;sketch=0;" vertex="1" parent="ji1JhoX9aw4-4HObb1kB-21">
          <mxGeometry width="220" height="100" as="geometry" />
        </mxCell>
        <mxCell id="ji1JhoX9aw4-4HObb1kB-15" value="OutputStream" style="rounded=0;whiteSpace=wrap;html=1;dashed=1;sketch=0;fontSize=16;" vertex="1" parent="ji1JhoX9aw4-4HObb1kB-21">
          <mxGeometry x="6.25" y="7.2727272727272725" width="100" height="29.09090909090909" as="geometry" />
        </mxCell>
        <mxCell id="ji1JhoX9aw4-4HObb1kB-18" value="InputStream" style="rounded=0;whiteSpace=wrap;html=1;dashed=1;sketch=0;fontSize=17;" vertex="1" parent="ji1JhoX9aw4-4HObb1kB-21">
          <mxGeometry x="106.25" y="7.2727272727272725" width="107.5" height="29.09090909090909" as="geometry" />
        </mxCell>
        <mxCell id="ji1JhoX9aw4-4HObb1kB-22" value="&lt;pre style=&quot;font-size: 12px ; text-align: right ; background-color: rgb(242 , 243 , 247)&quot;&gt;&lt;font color=&quot;#000000&quot; face=&quot;DejaVu Sans Mono, monospace&quot;&gt;&lt;span style=&quot;font-size: 17.0667px&quot;&gt;SocketIO#communicate&lt;/span&gt;&lt;/font&gt;&lt;/pre&gt;" style="text;html=1;strokeColor=none;fillColor=none;align=center;verticalAlign=middle;whiteSpace=wrap;rounded=0;dashed=1;sketch=0;fontSize=17;" vertex="1" parent="ji1JhoX9aw4-4HObb1kB-21">
          <mxGeometry x="20" y="58.18181818181818" width="170" height="14.545454545454545" as="geometry" />
        </mxCell>
        <mxCell id="ji1JhoX9aw4-4HObb1kB-27" style="edgeStyle=orthogonalEdgeStyle;curved=0;rounded=1;sketch=0;orthogonalLoop=1;jettySize=auto;html=1;entryX=0.5;entryY=0;entryDx=0;entryDy=0;entryPerimeter=0;fontSize=17;exitX=0.5;exitY=0;exitDx=0;exitDy=0;" edge="1" parent="WIyWlLk6GJQsqaUBKTNV-1" source="ji1JhoX9aw4-4HObb1kB-15" target="ji1JhoX9aw4-4HObb1kB-13">
          <mxGeometry relative="1" as="geometry" />
        </mxCell>
        <mxCell id="ji1JhoX9aw4-4HObb1kB-28" value="Server" style="text;html=1;strokeColor=none;fillColor=none;align=center;verticalAlign=middle;whiteSpace=wrap;rounded=0;dashed=1;sketch=0;fontSize=17;" vertex="1" parent="WIyWlLk6GJQsqaUBKTNV-1">
          <mxGeometry x="580" y="833" width="40" height="20" as="geometry" />
        </mxCell>
        <mxCell id="ji1JhoX9aw4-4HObb1kB-35" value="&lt;span style=&quot;color: rgba(0 , 0 , 0 , 0) ; font-family: monospace ; font-size: 0px&quot;&gt;s&lt;/span&gt;" style="shape=document;whiteSpace=wrap;html=1;boundedLbl=1;rounded=0;dashed=1;sketch=0;fontSize=17;" vertex="1" parent="WIyWlLk6GJQsqaUBKTNV-1">
          <mxGeometry x="414" y="210" width="346" height="160" as="geometry" />
        </mxCell>
        <mxCell id="ji1JhoX9aw4-4HObb1kB-36" value="Service抽象类，根据不同加密有不同实现" style="text;html=1;strokeColor=none;fillColor=none;align=center;verticalAlign=middle;whiteSpace=wrap;rounded=0;dashed=1;sketch=0;fontSize=17;" vertex="1" parent="WIyWlLk6GJQsqaUBKTNV-1">
          <mxGeometry x="411" y="210" width="336" height="40" as="geometry" />
        </mxCell>
        <mxCell id="ji1JhoX9aw4-4HObb1kB-40" value="" style="shape=image;verticalLabelPosition=bottom;labelBackgroundColor=#ffffff;verticalAlign=top;aspect=fixed;imageAspect=0;image=data:image/png,iVBORw0KGgoAAAANSUhEUgAAA6MAAADaCAYAAABTo5SIAAAgAElEQVR4Ae3d7+8r2V0f8GyDWlqQUgEqlfKASCCqsttGNBskvr2r3E32dtnu7oOym2y0ipJ4Q8VuQlEr2uYCAYKRGngAqkpQaZJtqxraAKHZ/gu4D/kj/EdUeTrVsX3s4/kez9jHM+f6x2ulu2PPeMb2mdd85rzP2P6+7x/+1Icb/7QBAwwwwAADDDDAAAMMMMBATQPvq/lkngtuBhhggAEGGGCAAQYYYICBYEAYdWXYlXEGGGCAAQYYYIABBhhgoLoBYRS66uiMhBkJY4ABBhhggAEGGGCAAWFUGBVGGWCAAQYYYIABBhhggIHqBoRR6KqjMwpmFIwBBhhggAEGGGCAAQaEUWFUGGWAAQYYYIABBhhggAEGqhsQRqGrjs4omFEwBhhggAEGGGCAAQYYEEaFUWGUAQYYYIABBhhggAEGGKhuQBiFrjo6o2BGwRhggAEGGGCAAQYYYEAYFUaFUQYYYIABBhhggAEGGGCgugFhFLrq6IyCGQVjgAEGGGCAAQYYYIABYVQYFUYZYIABBhhggAEGGGCAgeoGhFHoqqMzCmYUjAEGGGCAAQYYYIABBoRRYVQYZYABBhhggAEGGGCAAQaqGxBGoauOziiYUTAGGGCAAQYYYIABBhgQRoVRYZQBBhhggAEGGGCAAQYYqG5AGIWuOjqjYEbBGGCAAQYYYIABBhhgQBgVRoVRBhhggAEGGGCAAQYYYKC6AWEUuurojIIZBWOAAQYYYIABBhhggAFhVBgVRhlggAEGGGCAAQYYYICB6gaEUeiqozMKZhSMAQYYYIABBhhggAEGhFFhVBhlgAEGGGCAAQYYYIABBqobEEahq47OKJhRMAYYYIABBhhggAEGGBBGhVFhlAEGGGCAAQYYYIABBhiobkAYha46OqNgRsEYYIABBhhggAEGGGBAGBVGhVEGGGCAAQYYYIABBhhgoLoBYRS66uiMghkFY4ABBhhggAEGGGCAAWFUGBVGGWCAAQYYYIABBhhggIHqBoRR6KqjMwpmFIwBBhhggAEGGGCAAQaEUWFUGGWAAQYYYIABBhhggAEGqhsQRqGrjs4omFEwBhhggAEGGGCAAQYYEEaFUWGUAQYYYIABBhhggAEGGKhuQBiFrjo6o2BGwRhggAEGGGCAAQYYYEAYFUaFUQYYYIABBhhggAEGGGCgugFhFLrq6IyCGQVjgAEGGGCAAQYYYIABYVQYFUYZYIABBhhggAEGGGCAgeoGhFHoqqMzCmYUjAEGGGCAAQYYYIABBoRRYVQYZYABBhhggAEGGGCAAQaqGxBGoauOziiYUTAGGGCAAQYYYIABBhgQRoVRYZQBBhhggAEGGGCAAQYYqG5AGIWuOjqjYEbBGGCAAQYYYIABBhhgQBgVRoVRBhhggAEGGGCAAQYYYKC6AWEUuurojIIZBWOAAQYYYIABBhhggAFhVBgVRhlggAEGGGCAAQYYYICB6gaEUeiqozMKZhSMAQYYYIABBhhggAEGhFFhVBhlgAEGGGCAAQYYYIABBqobEEahq47OKJhRMAYYYIABBhhggAEGGBBGhVFhlAEGGGCAAQYYYIABBhiobkAYha46OqNgRsEYYIABBhhggAEGGGBAGBVGhVEGGGCAAQYYYIABBhhgoLoBYRS66uiMghkFY4ABBhhggAEGGGCAAWFUGBVGGWCAAQYYYIABBhhggIHqBoRR6KqjMwpmFIwBBhhggAEGGGCAAQaEUWFUGGWAAQYYYIABBhhggAEGqhsQRqGrjs4omFEwBhhggAEGGGCAAQYYEEaFUWGUAQYYYIABBhhggAEGGKhuQBiFrjo6o2BGwRhggAEGGGCAAQYYYEAYFUaFUQYYYIABBhhggAEGGGCgugFhFLrq6IyCGQVjgAEGGGCAAQYYYIABYVQYFUYZYIABBhhggAEGGGCAgeoGhFHoqqMzCmYUjAEGGGCAAQYYYIABBoRRYVQYZYABBhhggAEGGGCAAQaqGxBGoauOziiYUTAGGGCAAQYYYIABBhgQRoVRYZQBBhhggAEGGGCAAQYYqG5AGIWuOjqjYEbBGGCAAQYYYIABBhhgQBgVRoVRBhhggAEGGGCAAQYYYKC6AWEUuurojIIZBWOAAQYYYIABBhhggAFhVBgVRhlggAEGGGCAAQYYYICB6gaEUeiqozMKZhSMAQYYYIABBhhggAEGhFFhVBhlgAEGGGCAAQYYYIABBqobEEahq47OKJhRMAYYYIABBhhggAEGGBBGhVFhlAEGGGCAAQYYYIABBhiobkAYha46OqNgRsEYYIABBhhggAEGGGBAGBVGhVEGGGCAAQYYYIABBhhgoLoBYRS66uiMghkFY4ABBhhggAEGGGCAAWFUGBVGGWCAAQYYYIABBhhggIHqBoRR6KqjMwpmFIwBBhhggAEGGGCAAQaEUWFUGGWAAQbOxsDjx48b/86rDXQWdRYZYIABBsYyIIzqhJ5NJ3Qs5LargDJwOQZCEH3w4IF/Z9IGYX84fi7n+LGv7CsGGLg0A8KoMKqjwQADDJyNAWH0vIK4MKpje2kdW6+XWQYuy4AwqhN6Np1QxeOyiof9ZX+NYUAYFUbHcGWb6hUDDDBwngaEUWFUGGWAAQbOxoAwKozqMJ5nh9F+sV8YYGAMA8KoTujZdELHAG6bCicDl2VAGBVGHbOXdczaX/YXAwycYkAYFUaFUQYYYOBsDAijwugpnRrr6hQzwAADl2VAGNUJPZtOqOJxWcXD/rK/xjAgjAqjY7iyTfWKAQYYOE8DwqgwKowywAADZ2PgkDD63MdeaB699uXmpbe+0bzy9p8v/4XbYV5Y5k/DDBdow/7QgTvPDpz9Yr8wwMA1GBBGdUJ1NBhggIGzMXBIGH35F/+seeWL383+C8uEUWH0Gjpo3oOgwQADt2BAGNUJPZtO6C0ccN6jEwsD3Qa6wujrn35zGTT3BdE4P4TR+FjB9LRg6spot1fHs/ZhgAEGTjMgjAqjwigDDDBwNgb2hdGPf+ITze/8wdcPDqPhsWGddhj96BsvNs/8+iebZ77yyebZz7x0b3n78X337+4mzXS+aBZN8t981kzu7k7e9r7nDs85C0+4GPd5wvMLo6d1snRStR8DDDDQbUAY1Qk9m06og7X7YNU+2ucWDOwLo194+5ear/2n/7INo+/8ZfMPnv1U8/4P/P3mqaeean74g880H3/zj5Yf3Q0hKjw2rNMOdCGE3r34fHP36GHz9G9+6t7y9uO77m9CYciF81kzm06b2WzezCuG0emIoTe8d2FU3bmFuuM9cs7AkzMgjAqjwigDDDBwNgb2hdFfnX5tJ4z++LOvNx/80M80jz73realX/ifzUd/7nHz4lv/YyeMhnXaYfLpr24D6NO//ca95e3Hd92/m8yWV0QXs8lJ2+l6jie9TBh9ch00nWNtzwADt2BAGNUJPZtO6C0ccN6jEwsD3Qb2hdHf+f2v74TR93/gA80Ln3s3+yNGIcCFK6NhnXaYiwE0THP/2o/vuh/DaDOf3nueuN7yY7yz+fZjvIt5M5tsP8I7nYeP986XV1RXH/X96+avljfmTXrV8+5u2iwfupg1n//Zz2c/pjtJnydsdboKyX2vIb7W3FQY7fbqeNY+DDDAwGkGhFFhVBhlgAEGzsbAcWH0W0eH0Ri4ckE0BtX4mEOmqzC5/JxuM01CZlx3tXyxDIaTyXQVIpvFJpBu199+//NuPXM+3YbWdN7m48HJd0Ynyy+RNs0ihN3ptJmGjwuvr9j2vYb4WnNTYfS0TpZOqvZjgAEGug0IozqhZ9MJdbB2H6zaR/vcgoF9YfTex3R/+l80P/ShjzSPPvut5sVf+JPmHz/8peaf/vzv9n5MNwauocLo8qrjfPvzReG7o/HHi+KV0/RjvO15MSimV0s3V0GTK66rx62ulrbDaNxm7gptXNb1GmKb5KbCqLpzC3XHe+ScgSdnQBgVRoVRBhhg4GwM7Auj7R8wevntv2h+/NnXmvBx3fADRh/80LPNJz77jZ0wmvsBoxi4hgqjcXt3k9Wv6i5/U3d9xTJezUx+Z3dzM4bDNGTGbYVpOr8dTu+F0dWDm/RKatzWIa8hPjY3FUafXAdN51jbM8DALRgQRnVCz6YTegsHnPfoxMJAt4F9YXSoP+0SA9fQYTRuN35cNgTDGATDdzcnk9a/9a/gpqEzbiNMt+vG7Ww/2lsSRrteQ/q87dvCaLdXx7P2YYABBk4zIIwKo8IoAwwwcDYG9oXREJJe//Sbyx8KeuWL381+VzTOTx/bDldj398Jketf2819fDa+jr1hNP5gUfiTMeGXi5Lvh94Lox3PEz+m2/Ua4mvJTYXR0zpZOqnajwEGGOg2IIzqhJ5NJ9TB2n2wah/tcwsGusJoDEsv/+Kf7Q2jYVl83NjTZdBbhB8KmjXT9d8YXX17tPXdzvXfIQ2PmU5nzXwx2/xS7r4wGl57vMoaPtsbP9Yb5rfDaJi3/qTu8u+dLp9n/QNGm8d2vIaudhJG1Z1bqDveI+cMPDkDwqgwKowywAADZ2PgkDD63MdeaB699uXmpbe+0bzy9p8v/4XbYV5Y1hWuhlx2N5k288X2x4uWoXE+2/lV3WUYTH7gqGkWzWI+3fzIUVcY3VzVTH59N7z+TcBsXS2dzhfbPyHTrH7Bd/P4jtfQ1SbC6JProOkca3sGGLgFA8KoTujZdEJv4YDzHp1YGOg2cEgY7QpPlj0YNIwLo91eHc/ahwEGGDjNgDAqjAqjDDDAwNkYEEaHDZOnhnNh9LROlk6q9mOAAQa6DQijOqFn0wl1sHYfrNpH+9yCAWFUGL0F596jes4AAwysDAijwqgwygADDJyNAWFUGNVB00lngAEGbseAMKoTejadUIXndgqPfW1f7zMgjAqj+2yYr24wwAAD12dAGBVGhVEGGGDgbAwIo8Kozub1dTbtU/uUAQb2GRBGdULPphO6D6n5ChgDt2NAGBVGHe+3c7zb1/Y1AwwIo8KoMMoAAwycjQFhVBjVOdU5ZYABBm7HgDCqE3o2nVCF53YKj31tX+8zEMKof+fVBvv2lfmOYwYYYICBUw0Io8KoMMoAAwwwMLCBN979f82jr/xf7Tpwu57a6bG+jjMDDDBwXgaEUSdKnSUGGGCAgQENhBD6xrvfaz79ze9p1wHbVQfyvDqQ9of9wQADQxgQRp0odZYYYIABBgY0EELop9/93jKQujqqszZEZ802OGKAgWs1IIwO2AG5ViTelwLIAAMMHGZgc1U0XBl1ddQghz4GAwwwwECnAWEUkE4gOqCHdUC1k3ZigIFgIF4VXQZRV0edX/QxGGCAAQY6DQijgHQC0cHWwWaAAQYOM3Dvqqiro84v+hgMMMAAA50GhFFAOoHohB7WCdVO2okBBtpXRV0dZUJdYIABBhjoNiCMCqPCKAMMMMDAiQb2XhV1dZStE23pyHZ3ZLWP9mHgsg0Io04SOgoMMMAAAyca2HdV1NXRy+4k6eTafwwwwMC4BoTREzsggI4LVPtqXwYYOHcDvVdFXR012KGvwQADDDCQNSCMgpGFce6dP69PQGGAgXMx0HdV1NVRVs/FqtfBIgMMnJsBYVQYFUYZYIABBgoNHHxV1NVRxgqNnVvH0esRZhhgYEgDwqiTgw4CAwwwwMDABsLV0CFP1ral88cAAwwwcI0GhNGBOyDXiMR7UvwYYICB4wwIo8e1F1/aiwEGGLhNA8KoMGr0ngEGGGBgYAPC6G12qnSm7XcGGGDgOAPC6MAdEACPA6i9tBcDDFyjAWGU62t07T1xzQADQxsQRoVRV0QYYIABBgY2IIzqsA3dYbM9phhg4BoNCKMDd0CuEYn3pPgxwAADxxkQRo9rL760FwMMMHCbBoRRYdQVEQYYYICBgQ0Io7fZqdKZtt8ZYICB4wwIowN3QAA8DqD20l4MMHCNBoRRrq/RtffENQMMDG1AGBVGXRFhgAEGGBjYgDCqwzZ0h832mGKAgWs0IIwO3AG5RiTek+LHAAMMHGdAGD2uvfjSXgwwwMBtGhBGhVFXRBhggAEGBjYgjN5mp0pn2n5ngAEGjjMgjA7cAQHwOIDaS3sxwMA1GhBGub5G194T1wwwMLQBYVQYdUWEAQYYYGBgA8KoDtvQHTbbY4oBBq7RwPvCCdM/bcAAAwwwwAADDDDAAAMMMFDTgCujA4+GhxGLsAOvceTCezq/ETnWzm+fXONxwhlntVyzxtrY1hhjbCxjbJXZEkaFUcF5BANjFbr2dhW+ssLXbkf3u9uRs+724We49mFtuLbkMt+WjOXbhZfT24WtsjYURkcIIjCWYVQIj2831o5vM86ObzPOjm8zzsrajLWyduPt8HZj7PC24uq4tmLruPaKvoRRYdSV0REMxANs7KnCV1b4xt4v17Z9zjirZZo11sa2xhhjYxljq8yWMDpCEIGxDONYxeGat8saazV8c8ZZDWfhOVhjbWxrjDE2ljG2ymwJo8KoK6MjGBir0LW3q/CVFb52O7rf3Y6cdbcPP8O1D2vDtSWX+bZkLN8uvJzeLmyVtaEwOkIQgbEMo0J4fLuxdnybcXZ8m3F2fJtxVtZmrJW1G2+Htxtjh7cVV8e1FVvHtVf0JYwKo66MjmAgHmBjTxW+ssI39n65tu1zxlkt06yxNrY1xhgbyxhbZbaE0RGCCIxlGMcqDte8XdZYq+GbM85qOAvPwRprY1tjjLGxjLFVZksYFUZdGR3BwFiFrr1dha+s8LXb0f3uduSsu334Ga59WBuuLbnMtyVj+Xbh5fR2YausDYXREYIIjGUYFcLj242149uMs+PbjLPj24yzsjZjrazdeDu83Rg7vK24Oq6t2DquvaIvYVQYdWV0BAPxABt7qvCVFb6x98u1bZ8zzmqZZo21sa0xxthYxtgqsyWMjhBEYCzDOFZxuObtssZaDd+ccVbDWXgO1lgb2xpjjI1ljK0yW8KoMOrK6AgGxip07e0qfGWFr92O7ne3I2fd7cPPcO3D2nBtyWW+LRnLtwsvp7cLW2VtKIyOEERgLMOoEB7fbqwd32acHd9mnB3fZpyVtRlrZe3G2+HtxtjhbcXVcW3F1nHtFX0Jo8KoK6MjGIgH2NhTha+s8I29X65t+5xxVss0a6yNbY0xxsYyxlaZLWF0hCACYxnGsYrDNW+XNdZq+OaMsxrOwnOwxtrY1hhjbCxjbJXZEkaFUVdGRzAwVqFrb1fhKyt87XZ0v7sdOetuH36Gax/WhmtLLvNtyVi+XXg5vV3YKmtDYXSEIAJjGUaF8Ph2Y+34NuPs+Dbj7Pg246yszVgrazfeDm83xg5vK66Oayu2jmuv6EsYFUZdGR3BQDzAxp4qfGWFb+z9cm3b54yzWqZZY21sa4wxNpYxtspsCaMjBBEYyzCOVRyuebussVbDN2ec1XAWnoM11sa2xhhjYxljq8yWMCqMujI6goGxCl17uwpfWeFrt6P73e3IWXf78DNc+7A2XFtymW9LxvLtwsvp7cJWWRsKoyMEERjLMCqEx7cba8e3GWfHtxlnx7cZZ2VtxlpZu/F2eLsxdnhbcXVcW7F1XHtFX8LoCGH0+S/8oauNI7RrRGu6PdhZ27YFF+O1BWfjtS23u23L2m578DF8ezA2fJtyumpTtspsDRpGHz9+3PinDVIDYxSodPtu8xYNsMZCtDDmlDPOxvSVbps11lIPQ9/mi6+hTYXtlbgaPIw+ePCg8U8bRAMlKPvWCdjj9k1Ziwb63JQsZ42v6CtOSxz1rcMZZ9FXOu1zU7KcNdaisRI/fevwxVefkdxyYVR4HjXY5dCdOk+xU+ziyTSdnuoqtz5rrKXGwu2ck1PnccZZ2xlrTORMDDnv1LqVW18t4zbnom+eMCqMCqMMjGpgyJNn17b6il3JcidWJ9a2uRJHfetwxlnbWbjf56ZkOWusRWslfvrW4YuvPiO55cKoIDJqEMmhO3WeYqfYxZNpOj3VVW591lhLjYXbOSenzuOMs7Yz1pjImRhy3ql1K7e+WsZtzkXfPGFUGBVGGRjVwJAnz65t9RW7kuVOrE6sbXMljvrW4YyztrNwv89NyXLWWIvWSvz0rcMXX31GcsuFUUFk1CCSQ3fqPMVOsYsn03R6qqvc+qyxlhoLt3NOTp3HGWdtZ6wxkTMx5LxT61ZufbWM25yLvnlVwujD559v/s3j32i+/t+/3fzyv/3VUcPPkAeqbZ1+UPUBLFmu2J2+X67RdomlvnX2WVPTbtdgn5mS5ZzdrqeuWlxiqW8d1liL5vqslCzni68SN6OH0Y89fNj8h//4n5tv/K/3lv/+/Ve/1jx6/XHzz9/6ZvPqO99Z/gu3w7znHj4SVK/sSm0Jyr519hW7WGDDNFji7LaKYp+bkuU5a2rabblK60q4XeKobx3ObttU21i83+emZDlrrPHFQDQwxrSkLo0eRv/149/YBNE//pP/3bz5K99pXv3S/8n+e+Xtv2ief/ktgfSKAmkJyr51cifT9IAKhoIlzm6r4Pa5KVmes6am3ZartLaE2yWO+tbh7LZNtY3F+31uSpazxhpfDEQDY0xL6tLoYfQP/9u3l2E0BNG3f+u95jNfzgfRbXB4TyAVRjs7fLmTaTygQhB99Uvv7Q2inF1vES4pgH3r5KypaddrKNaRrmmfmZLlnN22qX3eSiz1rcMaa9Fbn5WS5XzxVeJm9DD6y//u15rw0dxwRTQE0T/+0/eaya91B9JwVeu5h//s3hXSj77xYvPMr3+yeeYrn2ye/cxL95bHA+zQ6d3dpJnOF82iSf6bz5rJ3d3J2973GsJzzsITLoZ5nuk8ee3rm4v5dOc9xPcZH7lovcfJdNbMk0Zorz+ZzpM2WjTz2eTg9ilB2bdOrtiF9g5muq6IboPoyh9nhxfNIZylx8Td3bRZ0Z030+R467OYbqN9u89NyfKcNTVt18251bTJssDGarc7Xaxr1yXUNM4u31lao/bVvPQx7dslNatvHTVt11W7zcP9c6tp4TXl6lqsZ/E93E2my75ce35c3p72WSlZztdl+go29vnZN7/tKd4vcTN6GA0vLnx3LwaBEER/5Xffa37yo280f/sHf6R56qm/0fzwB/9R8/ybf7R5THhsWCe+sTgNIfTuxeebu0cPm6d/81P3lsfHHTLdFJuQC+ezZjadNrPZvJm3gtoh2zrmMZvnXcx2OuHHbCN97CokLJavfzqdNbOYKpOwG4PEYjZtprN1ep1Pl+0XT5ChDaahDdbrp8UsBPZ5WDcJrfPpYYG9BGXfOrliF9okdRYMvfLF73J2Js5Ss+H29sS6DaOHWGxvJ73f56Zk+SHW1LTtAFs6sJDum2Nun1zTJqFW7f5blb1FM5us6tYl1jTOLs9Z6j5X89LludslNatvHTXtuLBwDjUt2Fj5iX29dX1b17MYFuLQW9p/y7mK8/qslCzn6/J87fOzb370s29a4qZKGF3+WFHyPdGf+MjrzY9+6GeaFz73bvPSv/x28+zPPW5efGu2E0bDOu03+vRXtwH06d9+497y9uO77t9NZsurfYcetF3bepLLVh23bYc+vJZNZ25y18QOfrMOn/eXT5rJuqCFZWlYzl0hju2Wbq/r/Zeg7FtnX7HjrL8Idu2rrmWnOku3vTG0PHNu7QZ7x1hMtxlu97kpWc7aeKba+y/eH9Ja2GauBsbnWi5fnwvUtMP2dTx+b/3cmRrqcxbbbBUWtjWvvY32/ZKa1beOmnaY8/a+OOX+EDVtFUbzdu7Cp9cW8+UFg9UH7w779FqflZLlfF2er31+9s3vOxZK3FQJo6+8s/tjMt//Az/UvPC5/7oTPuOV0zgN67TfcAygYZr713581/3NySEJae3Hh85xuJK4+QTrYr4ZWQ+PjQUmXFFdPeavm79a3tgtGJvO0GLWfP5nP5/9mO5ks4316Wq6KiaHvoZ09C4ACv+Fq5fp7fj+cvM2y3o+Rhzfy6EdkRKUfevsK3acrT/6esbONoMd8+nm+EntRodhunlscpU/Xd6+3eemZDlrl1/TNlcUkkG31I6adtzArnPn6tyaGgq39znb1LEDal57myU1q28dNe0ya1rsb+47XwY78djUPzssEMb26hqIPLQPfg05ILZH28+++e16Fe/31aDc8icYRt89OozGN5oLojGoxsccMl1ntvA53Waa6aisli+a+TRcsZmuQmSTftRrFRzT73/mgl46b3NiSjrYq5NYsxzZCh8XDgE4fi/zsNewG37Tk2J6O7ZJF6y4LHdwrg7K5bjbTiiP281Nc+hOnXfcyZSzeIX7HJytXsPKa9/Jtcsia/mTrZq2e0UgBs20Rqd21LTVwG7aJofc5uxwZ8fUvHbbn3quzK3v/Pmgd5D+HPtpm2Mudjtbvw0S7MRzZjtMtF3F+zkfp87j6zJ9dfmp4apKGL338cmf/vnm7/3YR5oXPvut5sUv/Gnz4Y//q+bBa7+3E05zH9ONB9BQYXTZEYnfsVx/dzR23HON3563Kg7bcLrcmfGHWZIrrqvHrTrg7SIXt5kNf5mPEsfHx2KTbjs8f/gBmOXF2XXYPSaMLj8fvrqmuvN91k2HbrksfGfhsO+LhtdzamHLrb+v2HEWdtD5OksHZYKNtt0wL/7bZzEuz01zVk6dx1r+Y67pvjvrmrZ6octPiaRm1LTdTxelbXPIbefOVhjd56w1Pz1uDmnnU+tXbn017TJr2mTzPfjkByeTfmbw1O4f9hnL+Th1Hl+X6avLTw1XVcJo+4dlXn7nL5uf+CevNX/r7/zd5v3f9zebH/2xZ5tPfPabO2E09wNG8cAaKozG7d1NVr+qu8paq1+5jR3n5bzW//YFwbi99ISz6fSsi8a9jlvrZBW3EaaHv4b2C9x+nPjQMBqxNcmV3/hawmteFcJQBFcfSA5Xi+PyrumphS23/r5ix9nys9nL/XJuzqKveOwEM+lxkhqKjwSwfCgAAAjLSURBVM1ZTB/Xvp2zcuo81lYDBOm+upiaFr9ysB6gSb2oaaeF0diWzp3J1wlazmIdO6TmxfZsT0+tX7n11bTLrWnRx+b8foC5uE5umvNx6jy+LtdXrmYFN/vm50yFeSWGqoTRof7kRnzjQ4fRuN1VcGt/1zJ8RLf1b/2nKNIOWtxGmMYQuf3O5vbq6aaIrK9cpo9Nt7G7ndbzh9ez8xqSX1ib7IbE3Pbb8yK05VW1zMeV09fVfv3pstztEpR96+wrdpydr7N4bLWGTbZ342BN/DGZcJLtsdj21uemZDlrqxNrWjNWt8/XWnSxqWutqwdxeZyqacd9ZzS2WzqNx/f2nBfOo33nrd2vl4TtXZOz2CbbIte61eMytEdJzepbR0273JqWHnO5/meseekASLpO+3aflZLlfF2ur31+9s1ve4r3S9xUCaPhBT7/8lvNq196b+fqZ/yxot3pe8vHxjdVc7pzIoyd4o4TRq4YhNe7vXIQ/tTK7t8UbXd84k7u+phubllsl32vIS6P20+LU7rO5vW0Rtji+u3p5vHJd17bj0nvl6DsW2dfsQvPy9nqI9Tt/RQd5Cx1LYv7MjUT56XTuI29znJ/bmP1efLVnyWaTLY/WHSgxfT5w+0+NyXLWVufWDdfPzj/mhZdpPU8zstN28dK7jHpvBJHfetwdn3OwlcN7v2JoVbNS13lbve5KVnO2uVai0Y2Nat1rsydh+M6uWmJn751+LpcX/v87JufMxXm9RnJLa8WRsMLDEHhlbd3f1k3DaJhWXjMvjc45Pxl4y7CDwWt/77m5tdsW9+5W3+XdHVSCR9T3f590K4OejoqmnbQN0UkCXOr7az+3unyedY/YLR5bOFriO212v76b4Wu/85ofE0RWbP+O6Pbk+fq6msI1rPwK8Lr7yvk/g5pfJ7cNIfu1HldxS68Bs6Sj46dibOcjfbx02cxt4103qmucuuztjqxhna+lJoWTcS6F/+2aJyvpm33aWyTY6bOnbufPtrnLNem7ZqXe0w6L1eTTp2npm39X0pNW17gWNz/e++xHxfNxHNoe35c3p6eaim3Pl+X5yu62Odn3/y4Xnuac9E3r2oYDS/4uYePmvDdvuWPzbzznebVd76zvB3mhWXtNzXW/dUfc119/zF+eGYRAlny0cBlGEx+4Ch8h22R/IJZ14kl7rz29942ATMJCWFe+CPs21ez+gXf8N5PeQ2x7drbSN9DvHoQ22A7TUP59pWF9xN/6Tduv2vaB7BkeV+xC6+Hs+0fiI8f6X6SznJG2sdPn8XcNtJ5JZb61mFte2K9lJoWTCxr3rJsZT4KuvwuqZqWHjvH3Hbu3P6AX5ezXJu2a17uMem8vvpUslxNu7yatnUWe2jbPmLqJdbocw6j4fXqn51n/2yfn33zU3vp7ZK6VD2Mpi/Y7W1RvNa2KEHZt84hJ9NrbU/va/8x0+emZDlr+9v7Vi2WOOpbhzPOcsdTn5uS5ayxFq2V+Olbhy+++ozklgujyZ+TiAeo6XAHUw7dqfMUu+H2zzVZP9VVbn3WWGsfIzknp87jjLO2s3D/VFe59VljLVrL+Th1Hl98lRgSRoXRUT8aXYKybx3FTrGLJ9N02uemZDlrrKXGwu0SR33rcMZZ2xlrTORMDDmvry6VLFfLuC1xI4wKo8IoA6MaGPLk2bWtkgLYt44TqxNr21yfmZLlnHHWdhbul1jqW4c11qK1Pisly/niq8SNMCqIjBpESlD2raPYKXbxZJpO+9yULGeNtdRYuF3iqG8dzjhrO2ONiZyJIef11aWS5WoZtyVuhFFhVBhlYFQDQ548u7ZVUgD71nFidWJtm+szU7KcM87azsL9Ekt967DGWrTWZ6VkOV98lbgRRgWRUYNICcq+dRQ7xS6eTNNpn5uS5ayxlhoLt0sc9a3DGWdtZ6wxkTMx5Ly+ulSyXC3jtsSNMCqMCqMMjGpgyJNn17ZKCmDfOk6sTqxtc31mSpZzxlnbWbhfYqlvHdZYi9b6rJQs54uvEjeDh9EA0T9tEA2UoOxbJ27blLPUQJ+bkuXp9t3mLRgocdS3Dlts5Qz0uSlZnnse827TX4mfvnVYuk1L6X7vM5JbPmgYzT2BeR8epfOiXbUrAwwwwAADDDDAAAMMXLIBYfSnAL5kwF47vwwwwAADDDDAAAMMXKYBYVQYdeWWAQYYYIABBhhggAEGGKhuQBiFrjo6I1eXOXJlv9lvDDDAAAMMMMAAA0MaEEaFUWGUAQYYYIABBhhggAEGGKhuQBiFrjq6IUdTbMvoHAMMMMAAAwwwwAADl2lAGBVGhVEGGGCAAQYYYIABBhhgoLoBYRS66uiMXF3myJX9Zr8xwAADDDDAAAMMDGlAGBVGhVEGGGCAAQYYYIABBhhgoLoBYRS66uiGHE2xLaNzDDDAAAMMMMAAAwxcpgFhVBgVRhlggAEGGGCAAQYYYICB6gaEUeiqozNydZkjV/ab/cYAAwwwwAADDDAwpAFhVBgVRhlggAEGGGCAAQYYYICB6gaEUeiqoxtyNMW2jM4xwAADDDDAAAMMMHCZBoRRYVQYZYABBhhggAEGGGCAAQaqGxBGoauOzsjVZY5c2W/2GwMMMMAAAwwwwMCQBoRRYVQYZYABBhhggAEGGGCAAQaqGxBGoauObsjRFNsyOscAAwwwwAADDDDAwGUaEEaFUWGUAQYYYIABBhhggAEGGKhuQBiFrjo6I1eXOXJlv9lvDDDAAAMMMMAAA0MaEEaFUWGUAQYYYIABBhhggAEGGKhuQBiFrjq6IUdTbMvoHAMMMMAAAwwwwAADl2lAGBVGhVEGGGCAAQYYYIABBhhgoLoBYRS66uiMXF3myJX9Zr8xwAADDDDAAAMMDGlAGBVGhVEGGGCAAQYYYIABBhhgoLoBYRS66uiGHE2xLaNzDDDAAAMMMMAAAwxcpgFhVBgVRhlggAEGGGCAAQYYYICB6gaEUeiqozNydZkjV/ab/cYAAwwwwAADDDAwpIH/D/qHQ9nFANETAAAAAElFTkSuQmCC;" vertex="1" parent="WIyWlLk6GJQsqaUBKTNV-1">
          <mxGeometry x="417" y="240.00000000000003" width="330" height="77.27" as="geometry" />
        </mxCell>
      </root>
    </mxGraphModel>
  </diagram>
</mxfile>
